<?xml version="1.0" encoding="utf-8"?>
<!-- Generator: Adobe Illustrator 26.5.3, SVG Export Plug-In . SVG Version: 6.00 Build 0)  -->
<svg version="1.1" id="avatar" xmlns="http://www.w3.org/2000/svg" xmlns:xlink="http://www.w3.org/1999/xlink" x="0px" y="0px"
	 viewBox="0 0 35 35" style="enable-background:new 0 0 35 35;" xml:space="preserve">
<style type="text/css">
	.st0{fill:#212121;}
	.st1{fill:#F0F6E8;}
</style>
<circle class="st0" cx="17.5" cy="17.5" r="17.5"/>
<g id="XMLID_00000132797290092302055110000018281482784040028837_">
	<g>
		<path class="st0" d="M26.2,20.6c0.2,0.2,0.5,0.7,0,1.5c0,0,0.2,0.2,0.2,0.3c0.3,0.7-0.7,1.2-0.8,1.2s-0.1,0,0,0
			c0,0,0.9-0.7,0.4-1.1c-0.5-0.4-0.9,0-1-0.3c-0.1-0.2,0.2-0.8,0.2-0.8c0.3-0.6,0.8-1.2,1.5-1.4c1-0.2,1.3,0.7,0.9,1.3l0,0
			C27.8,20.1,26.9,19.9,26.2,20.6z"/>
		<path class="st0" d="M13.4,25.1c0-0.2,2.6,0.1,3.9-1.4c-0.2-0.1-0.5-0.1-0.5-0.2c0,0,0.7-0.1,0.8,0c0.2,0.2-0.1,0.8-0.2,0.8
			s0-0.3,0-0.4l0,0c-0.2,0.4-0.6,0.8-1.6,1.1C15,25.3,13.4,25.2,13.4,25.1z"/>
		<path class="st0" d="M14.1,22.6c0,0.2-0.7,0.5-1.5,0.5c-1,0-1.5-1-1.5-1C12.1,22.6,14.1,22.4,14.1,22.6z"/>
		<path class="st0" d="M16.9,21.6c-0.3-0.2-0.5-0.5-0.6-0.8c0,0,0,0,0,0c0.3,0.3,0.6,0.5,0.9,0.7c0.2-0.1,0.5-0.2,0.8-0.2
			c-0.5-0.3-0.8-1-0.6-1.8c0-0.2,0.1-0.4,0.2-0.5c0,0.2,0.2,0.3,0.3,0.3c0.3,0,0.6-0.2,0.7-0.5c0-0.3,0-0.5-0.2-0.7
			c0.2,0,0.3,0,0.4,0c0.2,0,0.3,0.1,0.4,0.3c-0.2-0.4-0.4-0.8-0.9-1c-0.8-0.3-1.5,0.4-2.1,1c0-0.4,0.4-0.9,0.8-1.2
			c0.9-0.7,2.1-0.2,2.6,0.7c0.6,1.1,0.3,2.6-0.5,3.5c0.3,0,0.5,0.2,0.7,0.3c-1.1-0.2-2.2-0.2-3.1,0.5c0,0-0.1,0,0,0
			c0.1-0.2,0.3-0.3,0.4-0.4C16.9,21.6,16.9,21.6,16.9,21.6z"/>
		<path class="st0" d="M10.4,16.4c-0.8-0.2-1.5,0.3-1.9,0.9c0,0-0.1,0,0,0c0.5-1.5,2.3-1.9,3.1-0.4c0.3,0.5,0.4,1.3,0.2,1.9
			c0.5-0.5,1.8-0.7,1.8-0.5s-1.2,0.4-1.6,0.9c-0.4,0.5-0.5,1.8-0.6,1.8s0-0.7,0-1.3c-0.4,0.8-1.1,1.3-2.1,1
			c-0.4-0.2-0.8-0.5-0.9-0.9c0,0,0,0,0,0c0.4,0.6,1.2,0.9,1.8,0.4c0,0-0.1,0-0.2,0l0,0c-0.5-0.1-0.9-0.9-0.7-1.8
			c0-0.2,0.1-0.4,0.2-0.5c0,0.2,0.2,0.3,0.3,0.3c0.3,0,0.5-0.2,0.6-0.5c0-0.2,0-0.5-0.2-0.6c0.1,0,0.3,0,0.4,0
			c0.2,0,0.3,0.2,0.5,0.3C11.2,16.9,10.9,16.5,10.4,16.4z"/>
		<path class="st0" d="M8.5,16.2c0.2-1.1,1.1-1.9,1.7-2c1-0.1,1.6,0.3,2,0.7c0.1-0.1,0.2-0.4,0.2-0.4c0.6,1-0.2,2-0.2,2
			s-0.7-1-1.8-1.1C9.3,15.1,8.5,16.2,8.5,16.2L8.5,16.2z"/>
		<path class="st0" d="M16.3,14.4c0,0,0,0.3,0.1,0.5c0.7-0.2,2.2-0.3,3.2,0.3c0.8,0.5,1.6,1.7,1.1,3.3c0-0.1-0.4-1.8-2-2.2
			c-1.6-0.4-3,0.4-3,0.4S15.2,15.4,16.3,14.4z"/>
		<path class="st0" d="M7.7,20.1c-0.4,1.4-0.5,3.1,0.1,4.4c1.3,2.8,4.7,4,7.7,4.1c1.6,0,3.1-0.3,4.6-0.5c0,0,0,0,0,0
			C14,30.7,4.9,27.5,7.2,20.1c-0.1-1.3,0-2.6,0.2-4C6.2,14.5,6,12.8,6,12.8s0.7,0.3,1.1,0.1c-0.8,0-1.3-1.2-1.3-1.2
			c0.2-0.4,0.5-0.8,1-1c-0.4,0-0.7,0.2-0.7,0.2C6.8,10,7.8,9.6,8.6,9.3C8.2,9,7.8,8.8,7.8,8.8c0.7-0.9,2.6-1.4,3.3-1.4
			c-0.2-0.4-0.5-0.5-0.5-0.5c1.8-1,6.1-1.4,8.7,0.4c6.5,0.5,9.8,6.3,8.4,11.3c1.1,0.3,1.9,1.3,1.5,3.1l0,0c-0.4,1.3-1.1,2.6-2.4,3.2
			c-1,0.4-2,0-2.3-0.9c-0.3,1.7-1.6,3.3-3.1,3.8c0.1-0.2,0.4-0.4,0.6-0.6c0.9-0.9,1.7-2,2.2-3.2c0.1-0.4,0.2-0.8,0.3-1.3v0
			c0,0,0-0.2,0-0.2c0,0,0,0,0,0c0,0.2,0,0.4,0.1,0.6c0.1,0.4,0.3,0.9,0.5,1.1c0.9,0.9,2.2,0,2.8-1c0.9-1.3,1.5-3.9-0.7-4.1
			c-1.1-0.2-2,0.8-2.6,1.7c-0.1,0.3-0.2,0.5-0.4,0.9c-0.3-0.1-0.8-0.7-0.8-0.9c0-0.3,0-1.1,0.5-2.1c0,0-0.7-1-0.7-1.5
			c0-0.4-0.2-2.2-0.2-2.2s-3.2-3-8.4-3c-3.8,0-5.4,1.4-6.1,2.4C8.2,15.1,8,16,7.9,16.8C7.7,17.9,7.7,19,7.7,20.1z"/>
		<path class="st1" d="M20.8,18.5L20.8,18.5L20.8,18.5L20.8,18.5z"/>
		<path class="st1" d="M25.6,23.4c0.1,0,1.1-0.5,0.8-1.2c0-0.1-0.1-0.2-0.2-0.3c0.5-0.7,0.2-1.3,0-1.5c0.7-0.7,1.6-0.5,1.3,0.7l0,0
			c0.4-0.8,0-1.6-0.9-1.3c-0.7,0.2-1.1,0.8-1.5,1.4c0,0-0.3,0.5-0.2,0.8c0,0.2,0.5-0.2,1,0.3C26.4,22.8,25.5,23.4,25.6,23.4
			C25.4,23.4,25.4,23.4,25.6,23.4z M11.3,22.1c0,0,0.4,1,1.5,1c0.7,0,1.5-0.3,1.5-0.5C14.1,22.4,12.1,22.6,11.3,22.1z M17.5,23.8
			c0,0.2-0.1,0.4,0,0.4c0,0,0.3-0.6,0.2-0.8c-0.2-0.2-0.8,0-0.8,0c0,0.1,0.3,0.1,0.5,0.2c-1.3,1.5-3.9,1.3-3.9,1.4
			c0,0.2,1.6,0.2,2.5-0.1C16.9,24.7,17.3,24.3,17.5,23.8L17.5,23.8z M16.4,15c-0.2-0.3-0.1-0.5-0.1-0.5c-1.1,1-0.5,2.3-0.5,2.3
			s1.4-0.8,3-0.4c1.5,0.4,2,2.1,2,2.2l0,0l0,0l0,0c0.4-1.5-0.3-2.8-1.1-3.3C18.7,14.7,17.1,14.7,16.4,15z M16.4,18.2
			c0.5-0.5,1.3-1.3,2.1-1c0.4,0.2,0.8,0.5,0.9,1c-0.1-0.1-0.3-0.2-0.4-0.3c-0.2,0-0.3,0-0.4,0c0.2,0.2,0.2,0.4,0.2,0.7
			c0,0.3-0.4,0.6-0.7,0.5c-0.2,0-0.3-0.2-0.3-0.3c0,0.2-0.2,0.4-0.2,0.5c-0.2,0.8,0.1,1.6,0.6,1.8c-0.3,0-0.5,0.1-0.8,0.2
			c-0.3-0.1-0.6-0.3-0.9-0.7h0c0.1,0.3,0.3,0.6,0.6,0.8c0,0,0,0,0,0c-0.2,0.1-0.3,0.3-0.4,0.4c0,0,0,0.1,0,0c1-0.7,2.1-0.7,3.1-0.5
			c-0.2-0.2-0.4-0.3-0.7-0.3c0.9-0.9,1.1-2.4,0.5-3.5c-0.4-1-1.7-1.3-2.6-0.7C16.7,17.3,16.4,17.7,16.4,18.2z M8.5,17.2
			C8.5,17.3,8.5,17.3,8.5,17.2c0.4-0.6,1.2-1.1,1.9-0.9c0.4,0.2,0.7,0.5,0.9,1c-0.1-0.2-0.3-0.3-0.5-0.3c-0.1,0-0.3,0-0.4,0
			c0.2,0.1,0.2,0.3,0.2,0.6c0,0.3-0.3,0.5-0.6,0.5c0,0-0.2-0.2-0.2-0.3c0,0.2-0.1,0.3-0.2,0.5c-0.2,0.9,0.2,1.6,0.7,1.8l0,0
			c0,0,0.1,0,0.2,0c-0.7,0.4-1.4,0.2-1.8-0.4c0,0,0,0,0,0c0.1,0.4,0.4,0.8,0.9,0.9c0.9,0.2,1.7-0.3,2.1-1c-0.1,0.7-0.1,1.3,0,1.3
			c0,0,0.2-1.3,0.6-1.8c0.4-0.5,1.6-0.8,1.6-0.9c0-0.1-1.3,0-1.8,0.5c0.2-0.7,0.1-1.3-0.2-1.9C10.8,15.3,9,15.8,8.5,17.2z
			 M10.3,14.2c-0.7,0-1.6,0.8-1.7,2l0,0c0,0,0.8-1.1,2-0.9c1.2,0.2,1.8,1.1,1.8,1.1s0.8-1.1,0.2-2c0,0,0,0.3-0.2,0.4
			C11.9,14.5,11.3,14.1,10.3,14.2z M7.4,16.1c-0.2,1.3-0.3,2.6-0.2,4c-2.4,7.5,6.7,10.7,12.9,8.1c0,0,0-0.1,0,0
			c-1.6,0.2-3.1,0.5-4.6,0.5c-3-0.1-6.4-1.3-7.7-4.1c-0.6-1.3-0.6-3-0.1-4.4c0-1.1,0-2.2,0.1-3.3C8,16,8.1,15.1,8.4,14.3
			c0.7-1,2.3-2.4,6.1-2.4c5.2,0,8.4,3,8.4,3s0.1,1.7,0.2,2.2c0,0.4,0.7,1.5,0.7,1.5c-0.5,0.9-0.6,1.8-0.5,2.1c0,0.3,0.5,0.9,0.8,0.9
			c0.1-0.3,0.2-0.7,0.4-0.9c0.7-0.9,1.5-1.8,2.6-1.7c2.2,0.3,1.6,2.8,0.7,4.1c-0.6,0.9-1.9,1.9-2.8,1c-0.3-0.3-0.4-0.7-0.5-1.1
			c0-0.2,0-0.4-0.1-0.6c0,0,0,0,0,0c0,0,0,0.2,0,0.2v0c0,0.4-0.2,0.9-0.3,1.3c-0.4,1.3-1.3,2.3-2.2,3.2c-0.2,0.2-0.4,0.4-0.6,0.6
			l0,0l0,0c1.6-0.5,2.8-2.1,3.1-3.8c0.3,0.9,1.3,1.3,2.3,0.9c1.3-0.6,2.1-1.9,2.4-3.2l0,0c0.4-1.8-0.4-2.8-1.5-3.1
			c1.4-4.9-1.9-10.8-8.4-11.3c-2.5-1.8-6.9-1.4-8.7-0.4c0,0,0.3,0.1,0.5,0.5c-0.6,0-2.5,0.4-3.3,1.4c0,0,0.4,0.3,0.7,0.5
			C7.8,9.5,6.7,9.9,6,10.8c0,0,0.3-0.1,0.7-0.2c-0.5,0.3-0.9,0.7-1,1c0,0,0.6,1.1,1.3,1.2c-0.4,0.2-1.1-0.1-1.1-0.1
			S6.2,14.5,7.4,16.1z M7.4,8.8c0-0.1,0-0.2,0.1-0.3c0.6-0.8,1.8-1.3,2.7-1.4c-0.1,0-0.1-0.1-0.1-0.2c0-0.2,0-0.3,0.2-0.4
			c2-1.1,6.4-1.5,9.1,0.4c3.1,0.3,5.7,1.7,7.3,4.1c1.5,2.2,2.1,4.8,1.5,7.3l0,0c1,0.4,1.9,1.6,1.3,3.5c-0.4,1.7-1.4,2.9-2.6,3.5
			c-0.6,0.3-1.3,0.3-1.8,0c-0.2-0.1-0.4-0.2-0.5-0.4c-0.5,1.5-1.7,2.7-3.2,3.3c0,0,0,0,0,0c-0.3,0.1-0.8,0.3-1.3,0.5h0
			c-1.3,0.5-2.8,0.8-4.3,0.8c-2.8,0-5.4-0.9-7.2-2.6c-1.3-1.3-2.6-3.5-1.6-6.9c-0.1-1.3,0-2.5,0.2-3.8c-1.1-1.6-1.3-3.2-1.3-3.3v0
			c0-0.1,0-0.2,0.2-0.3C5.7,12.2,5.6,12,5.5,12c0-0.1,0-0.2,0-0.3c0-0.2,0.2-0.5,0.3-0.7c-0.1-0.1-0.1-0.2-0.1-0.4
			C6.3,9.9,7,9.5,7.7,9.2c-0.1,0-0.1-0.1-0.1-0.1C7.4,9,7.4,8.9,7.4,8.8z"/>
	</g>
</g>
</svg>
