<?xml version="1.0" encoding="utf-8"?>
<!-- Generator: Adobe Illustrator 26.5.3, SVG Export Plug-In . SVG Version: 6.00 Build 0)  -->
<svg version="1.1" id="v-2" xmlns="http://www.w3.org/2000/svg" xmlns:xlink="http://www.w3.org/1999/xlink" x="0px" y="0px"
	 viewBox="0 0 45.6 19.7" style="enable-background:new 0 0 45.6 19.7;" xml:space="preserve">
<style type="text/css">
	.st0{fill:#212121;}
</style>
<polygon class="st0" points="36.2,2.2 37.2,2.2 37.2,6.9 39.4,6.9 39.4,0 39.3,0 33.7,0 32.8,2.4 35.2,2.4 31.4,6.8 32.7,3.1 
	30.2,3.1 31.3,0 29.3,0 29.3,6.9 36.2,6.9 "/>
<path class="st0" d="M25.2,3.9c0.4,0,0.9,0.2,1.4,0.7V3.1c0,0-0.6-0.1-1.4,0.3V2.2h3.1V0H23v6.9h2.2V3.9z"/>
<path class="st0" d="M25.8,8.4H23v11.3h2.6c3,0,4.1-2.1,4.1-5.9C29.8,10.3,28.6,8.4,25.8,8.4L25.8,8.4z M25.6,18.3h-0.8V9.9h0.9
	c1.7,0,2.3,1.2,2.3,3.9C27.9,16.9,27.4,18.3,25.6,18.3L25.6,18.3z"/>
<polygon class="st0" points="33.1,14.6 36.8,14.6 36.8,13 33.1,13 33.1,10 37,10 37,8.4 31.4,8.4 31.4,19.7 37,19.7 37.2,18.2 
	33.1,18.2 "/>
<path class="st0" d="M43.8,8.4l-1.1,5c-0.3,1.5-0.8,3.3-0.9,4.4h0c-0.1-1.1-0.5-2.9-0.8-4.5l-1.1-5h-1.9l2.8,11.3h2.1l2.9-11.3H43.8
	L43.8,8.4z"/>
<path class="st0" d="M42.5,4.8V3.9l0,0c0.4,0,0.9,0.2,1.4,0.7V3.1c0,0-0.6-0.1-1.4,0.3V2.2h3.1V0h-5.3v6.9h5.3V4.8
	C45.6,4.8,42.5,4.8,42.5,4.8z"/>
<g>
	<path class="st0" d="M4.2,8C5.2,8.2,5.8,9,5.8,9s0.6-0.9,0.1-1.7c0,0-0.1,0.3-0.2,0.4C5.4,7.4,4.8,7.1,4.1,7.1
		C3.5,7.2,2.8,7.8,2.6,8.7C2.7,8.6,3.3,7.9,4.2,8z"/>
	<path class="st0" d="M6,14.5c0.6,0,1.2-0.2,1.2-0.5c0-0.2-1.6,0-2.4-0.4C4.8,13.7,5.2,14.5,6,14.5z"/>
	<path class="st0" d="M2.6,11.7C2.6,11.6,2.6,11.7,2.6,11.7C2.7,12,3,12.3,3.3,12.4c0.8,0.2,1.4-0.2,1.7-0.8C5,12.1,5,12.7,5,12.7
		c0.1,0,0.2-1.1,0.5-1.5c0.3-0.4,1.3-0.6,1.3-0.8c0-0.1-1.1,0-1.5,0.5c0.1-0.5,0.1-1.1-0.2-1.6C4.5,8.1,3,8.4,2.6,9.6
		c0,0,0,0.1,0.1,0C3,9.1,3.6,8.7,4.2,8.9c0.4,0.2,0.6,0.4,0.7,0.8C4.8,9.6,4.7,9.5,4.5,9.4c-0.1,0-0.2,0-0.3,0
		C4.3,9.6,4.4,9.8,4.3,10c0,0.3-0.3,0.5-0.5,0.4c-0.1,0-0.2-0.1-0.3-0.2c-0.1,0.1-0.1,0.3-0.1,0.4C3.3,11.3,3.6,11.9,4,12l0,0
		c0,0,0.1,0,0.1,0C3.7,12.4,3,12.2,2.6,11.7z"/>
	<path class="st0" d="M10,15.5c0.1,0,0.3-0.5,0.1-0.6s-0.7,0-0.7,0c0,0.1,0.3,0.1,0.4,0.2c-1.1,1.2-3.3,1-3.3,1.1
		c0,0.1,1.3,0.2,2.1-0.1c0.8-0.3,1.1-0.6,1.3-0.9v0C10.1,15.3,10,15.5,10,15.5z"/>
	<path class="st0" d="M18.4,13c0.3-0.6,0-1.3-0.8-1.1C17,12,16.7,12.5,16.4,13c0,0-0.2,0.4-0.2,0.6c0,0.2,0.5-0.1,0.8,0.2
		c0.4,0.4-0.4,0.9-0.4,0.9c0,0-0.1,0,0,0c0.1,0,1-0.4,0.7-1c0-0.1-0.1-0.2-0.2-0.2c0.5-0.6,0.2-1,0.1-1.2c0,0,0,0,0,0v0c0,0,0,0,0,0
		C17.8,11.8,18.5,12,18.4,13L18.4,13z"/>
	<path class="st0" d="M11.8,8C11,7.5,9.7,7.6,9.2,7.8C9,7.5,9.1,7.3,9.1,7.3C8.2,8.1,8.6,9.2,8.6,9.2s1.2-0.7,2.5-0.3
		c1.3,0.4,1.6,1.8,1.6,1.8C13.1,9.5,12.5,8.4,11.8,8z"/>
	<path class="st0" d="M18.4,10.7c1.1-4.1-1.6-8.9-7-9.3C9.4-0.1,5.8,0.3,4.2,1.1c0,0,0.3,0.1,0.4,0.4C4.2,1.5,2.6,1.9,2,2.7
		c0,0,0.3,0.2,0.6,0.4C2,3.3,1.2,3.7,0.6,4.4c0,0,0.2-0.1,0.5-0.1C0.8,4.5,0.4,4.8,0.3,5.2c0,0,0.5,0.9,1.1,1
		C1.1,6.3,0.5,6.1,0.5,6.1s0.2,1.3,1.1,2.7C1.5,9.8,1.4,10.9,1.5,12c-2,6.2,5.6,8.8,10.7,6.7c0,0,0-0.1,0-0.1
		C10.9,18.8,9.7,19,8.4,19c-2.4,0-5.3-1-6.3-3.3C1.6,14.6,1.6,13.2,2,12c0-0.9,0-1.8,0.1-2.8c0.1-0.7,0.2-1.4,0.5-2
		c0.5-0.8,1.9-2,5-2c4.3,0,6.9,2.5,6.9,2.5s0.1,1.4,0.1,1.8c0,0.4,0.6,1.2,0.6,1.2c-0.4,0.8-0.5,1.5-0.4,1.7
		c0.1,0.2,0.4,0.7,0.7,0.8c0.1-0.3,0.2-0.5,0.3-0.8c0.6-0.7,1.2-1.5,2.2-1.4c1.8,0.2,1.3,2.4,0.6,3.4c-0.5,0.8-1.5,1.5-2.3,0.8
		c-0.2-0.2-0.4-0.6-0.5-0.9c0-0.2,0-0.3-0.1-0.5c0,0,0,0,0,0c0,0.1,0,0.1,0,0.2c0,0,0,0,0,0.1c0,0.4-0.1,0.7-0.2,1
		c-0.3,1-1,1.9-1.8,2.6c-0.1,0.2-0.4,0.3-0.5,0.5c1.3-0.5,2.4-1.7,2.6-3.1c0.3,0.8,1.1,1.1,1.9,0.8c1.1-0.5,1.7-1.5,2-2.6
		C20,11.8,19.3,11,18.4,10.7z"/>
	<path class="st0" d="M11.8,10.1C11.5,9.3,10.4,9,9.7,9.5c-0.3,0.2-0.6,0.6-0.6,1c0.5-0.4,1-1,1.7-0.8c0.4,0.2,0.6,0.5,0.7,0.8
		c-0.1-0.1-0.2-0.2-0.4-0.2c-0.1,0-0.2,0-0.4,0c0.1,0.1,0.2,0.3,0.2,0.5c-0.1,0.3-0.3,0.5-0.5,0.5c-0.1,0-0.2-0.1-0.3-0.3
		c-0.1,0.1-0.1,0.3-0.2,0.5c-0.1,0.7,0.1,1.3,0.5,1.5c-0.2,0-0.4,0.1-0.6,0.2c-0.2-0.1-0.5-0.2-0.8-0.5c0,0,0,0,0,0
		c0.1,0.3,0.2,0.5,0.5,0.7c0,0,0,0,0.1,0c-0.1,0.1-0.3,0.2-0.4,0.3c0,0,0,0.1,0.1,0.1c0.8-0.6,1.7-0.5,2.6-0.4
		c-0.1-0.1-0.3-0.2-0.5-0.2C12.1,12.3,12.3,11,11.8,10.1z"/>
</g>
</svg>
