<?xml version="1.0" encoding="utf-8"?>
<!-- Generator: Adobe Illustrator 26.5.3, SVG Export Plug-In . SVG Version: 6.00 Build 0)  -->
<svg version="1.1" id="a" xmlns="http://www.w3.org/2000/svg" xmlns:xlink="http://www.w3.org/1999/xlink" x="0px" y="0px"
	 viewBox="0 0 18 18" style="enable-background:new 0 0 18 18;" xml:space="preserve">
<style type="text/css">
	.st0{fill:none;stroke:#C6C6C6;stroke-linejoin:round;}
	.st1{fill:none;stroke:#C6C6C6;stroke-linecap:round;stroke-linejoin:round;}
</style>
<path class="st0" d="M13.2,3.8h1c0.8,0,1.4,0.6,1.4,1.4v10.1c0,0.8-0.6,1.4-1.4,1.4H3.8c-0.8,0-1.4-0.6-1.4-1.4V5.2
	c0-0.8,0.6-1.4,1.4-1.4h1.4"/>
<line class="st0" x1="6.7" y1="3.8" x2="11.4" y2="3.8"/>
<g>
	<path class="st1" d="M5.9,5.4L5.9,5.4C5.4,5.4,5,5,5,4.5V2.4c0-0.5,0.4-0.9,0.9-0.9l0,0c0.5,0,0.9,0.4,0.9,0.9v2.1
		C6.8,5,6.4,5.4,5.9,5.4z"/>
	<path class="st1" d="M12.1,5.4L12.1,5.4c-0.5,0-0.9-0.4-0.9-0.9V2.4c0-0.5,0.4-0.9,0.9-0.9l0,0c0.5,0,0.9,0.4,0.9,0.9v2.1
		C13,5,12.6,5.4,12.1,5.4z"/>
</g>
<line class="st0" x1="2.4" y1="8.1" x2="15.3" y2="8.1"/>
<g>
	<circle class="st0" cx="10.5" cy="9.9" r="0.1"/>
	<circle class="st0" cx="13.4" cy="9.9" r="0.1"/>
</g>
<g>
	<circle class="st0" cx="4.6" cy="12.3" r="0.1"/>
	<circle class="st0" cx="7.5" cy="12.3" r="0.1"/>
	<circle class="st0" cx="10.5" cy="12.3" r="0.1"/>
	<circle class="st0" cx="13.4" cy="12.3" r="0.1"/>
</g>
<g>
	<circle class="st0" cx="4.6" cy="14.8" r="0.1"/>
	<circle class="st0" cx="7.5" cy="14.8" r="0.1"/>
	<circle class="st0" cx="10.5" cy="14.8" r="0.1"/>
	<circle class="st0" cx="13.4" cy="14.8" r="0.1"/>
</g>
</svg>
