<?xml version="1.0" encoding="UTF-8"?><svg id="v-2" xmlns="http://www.w3.org/2000/svg" viewBox="0 0 45.62 19.73"><defs><style>.cls-1{fill:#f0f6e8;}</style></defs><g><polygon class="cls-1" points="36.2 2.17 37.2 2.17 37.2 6.94 39.37 6.94 39.37 0 39.33 0 33.7 0 32.85 2.39 35.25 2.39 31.37 6.8 32.65 3.1 30.25 3.1 31.32 0 29.26 0 29.26 6.94 36.2 6.94 36.2 2.17"/><path class="cls-1" d="M25.17,3.91c.37,.05,.86,.22,1.37,.69v-1.49s-.63-.11-1.37,.28v-1.23h3.13V0h-5.3V6.94h2.17V3.91Z"/><path class="cls-1" d="M25.8,8.41h-2.8v11.32h2.64c3.04,0,4.12-2.08,4.12-5.91,0-3.55-1.14-5.4-3.95-5.4Zm-.2,9.86h-.83V9.89h.85c1.73,0,2.32,1.21,2.32,3.95,0,3.09-.58,4.44-2.33,4.44Z"/><polygon class="cls-1" points="33.14 14.56 36.82 14.56 36.82 13.03 33.14 13.03 33.14 9.96 37 9.96 37 8.41 31.4 8.41 31.4 19.73 37.03 19.73 37.25 18.21 33.14 18.21 33.14 14.56"/><path class="cls-1" d="M43.79,8.41l-1.1,5.02c-.34,1.52-.8,3.34-.94,4.43h-.03c-.14-1.15-.49-2.93-.83-4.46l-1.11-4.99h-1.89l2.81,11.32h2.07l2.87-11.32h-1.84Z"/><path class="cls-1" d="M42.48,4.77v-.86h0c.37,.05,.86,.22,1.37,.69v-1.49s-.63-.11-1.37,.28v-1.23h3.13V0h-5.3V6.94h5.31v-2.17h-3.14Z"/></g><path class="cls-1" d="M18.83,10.47c.48-2.06,.05-4.25-1.2-6.04-1.36-1.95-3.5-3.14-6.04-3.37C9.4-.47,5.75-.14,4.07,.78c-.11,.06-.17,.18-.17,.3,0,.07,.03,.13,.07,.19-.73,.16-1.72,.54-2.23,1.17-.06,.07-.08,.16-.07,.25s.06,.17,.14,.22c0,0,.04,.03,.1,.07-.53,.24-1.11,.61-1.54,1.2-.07,.1-.08,.23-.03,.34-.15,.16-.25,.33-.31,.5-.03,.09-.03,.19,.02,.27,.03,.05,.14,.25,.32,.47,0,0,0,0,0,0-.09,.07-.14,.18-.12,.3,0,.06,.17,1.36,1.12,2.71-.18,1.09-.23,2.16-.14,3.17-.87,2.85,.22,4.67,1.29,5.7,1.43,1.37,3.65,2.1,5.94,2.1,1.2,0,2.41-.2,3.55-.62,.01,0,.04-.01,.06-.02,.47-.17,.86-.33,1.15-.48,0,0,.02,0,.03,0,1.18-.41,2.18-1.45,2.62-2.66,.13,.12,.29,.22,.46,.3,.45,.2,.97,.19,1.47-.03,1.04-.47,1.82-1.49,2.2-2.87,.41-1.6-.3-2.52-1.13-2.88Zm-6.09,.24s-.32-1.46-1.63-1.83c-1.32-.37-2.48,.29-2.48,.29,0,0-.47-1.04,.44-1.87,0,0-.05,.23,.1,.45,.54-.18,1.82-.21,2.64,.28,.68,.41,1.3,1.43,.93,2.68Zm-.83,2.54c-.89-.12-1.82-.14-2.6,.42-.04,.04-.1-.02-.07-.06,.1-.14,.23-.25,.37-.35-.02,0-.04,.02-.06,.03-.24-.16-.42-.4-.49-.67,0-.02,.02-.04,.04-.02,.26,.29,.51,.45,.76,.52,.19-.09,.39-.16,.6-.19-.41-.2-.62-.83-.49-1.51,.03-.17,.09-.32,.15-.46,.06,.13,.16,.24,.29,.26,.24,.05,.47-.15,.53-.45,.04-.21-.02-.41-.15-.52,.12-.04,.24-.06,.37-.04,.15,.03,.27,.11,.38,.23-.13-.33-.37-.62-.74-.79-.69-.24-1.25,.36-1.7,.81,.04-.37,.31-.73,.63-.97,.7-.53,1.76-.19,2.11,.59,.47,.91,.27,2.19-.46,2.92,.2,.06,.39,.15,.55,.28Zm-1.88,1.87c-.18,.36-.49,.66-1.33,.93-.75,.24-2.06,.2-2.06,.08s2.15,.11,3.28-1.14c-.16-.08-.43-.1-.43-.18,0,0,.53-.11,.66,.04,.13,.15-.08,.62-.14,.63-.05,0,.05-.21,.02-.35Zm-5.98-3.09c-.47-.09-.74-.74-.6-1.46,.03-.16,.08-.3,.14-.43,.05,.12,.15,.22,.27,.24,.22,.04,.44-.14,.49-.42,.04-.2-.02-.38-.14-.49,.11-.04,.23-.06,.34-.03,.15,.03,.28,.12,.38,.25-.12-.34-.35-.63-.72-.78-.62-.17-1.21,.24-1.54,.76-.02,.04-.08,0-.06-.03,.43-1.22,1.89-1.55,2.54-.31,.25,.45,.29,1.04,.16,1.59,.4-.45,1.48-.56,1.48-.46,0,.11-.97,.34-1.27,.75-.3,.41-.44,1.48-.5,1.48-.04,0-.07-.57,.03-1.09-.35,.62-.95,1.04-1.72,.85-.37-.12-.62-.43-.74-.75-.01-.03,.03-.05,.05-.03,.36,.51,1.01,.7,1.52,.37-.04,0-.08,0-.12,0Zm-1.43-3.29c.13-.94,.87-1.55,1.44-1.61,.79-.08,1.36,.25,1.65,.53,.11-.09,.18-.36,.18-.36,.48,.79-.14,1.66-.14,1.66,0,0-.56-.79-1.53-.94-.97-.15-1.61,.72-1.61,.72Zm4.61,5.34c0,.2-.59,.46-1.19,.45-.87-.01-1.19-.87-1.19-.87,.74,.42,2.38,.22,2.38,.42Zm12.41-.81c-.3,1.1-.94,2.16-2.02,2.65-.81,.35-1.65,0-1.92-.75-.23,1.39-1.31,2.68-2.59,3.13,.11-.19,.34-.33,.48-.49,.76-.75,1.44-1.6,1.77-2.62,.11-.33,.19-.68,.23-1.04,0-.02,0-.04,0-.06,0-.06,.01-.11,.02-.17,0-.02,.04-.03,.04,0,.04,.16,.06,.32,.07,.48,.09,.36,.23,.71,.47,.93,.77,.75,1.84-.05,2.31-.8,.77-1.09,1.27-3.23-.56-3.44-.96-.12-1.6,.67-2.18,1.37-.09,.21-.19,.46-.29,.75-.25-.08-.63-.54-.69-.77-.05-.21,.05-.91,.43-1.68,0,0-.57-.85-.6-1.23-.03-.37-.14-1.78-.14-1.78,0,0-2.63-2.5-6.9-2.5-3.16,0-4.5,1.15-5.05,1.98-.25,.65-.38,1.37-.48,2.05-.14,.91-.14,1.84-.09,2.75-.38,1.17-.39,2.52,.1,3.65,1.06,2.34,3.88,3.3,6.32,3.33,1.28,.03,2.54-.2,3.83-.38,.03,0,.05,.05,.02,.06-5.11,2.11-12.66-.47-10.7-6.7-.1-1.1-.04-2.2,.15-3.28-.98-1.33-1.14-2.66-1.14-2.66,0,0,.58,.22,.9,.08-.62-.02-1.13-.96-1.13-.96,.13-.33,.46-.63,.85-.87-.34,.02-.54,.11-.54,.11,.55-.75,1.37-1.12,1.96-1.3-.28-.22-.59-.43-.59-.43,.62-.78,2.19-1.14,2.68-1.14-.17-.33-.45-.43-.45-.43,1.56-.86,5.16-1.21,7.25,.3,5.35,.43,8.1,5.21,6.96,9.3,.9,.25,1.58,1.13,1.21,2.6Zm-2.39-.87c.14,.16,.39,.6-.07,1.19,.06,.05,.12,.13,.17,.23,.28,.56-.59,.98-.67,.97-.08,0-.07-.04-.02-.04,0,0,.76-.52,.37-.88-.38-.36-.78-.07-.83-.24-.05-.18,.19-.6,.19-.6,.28-.5,.63-.99,1.21-1.18,.79-.2,1.09,.52,.78,1.14,0,0-.01,0-.01,0,.16-1.01-.54-1.15-1.12-.58Z"/></svg>