<?xml version="1.0" encoding="utf-8"?>
<!-- Generator: Adobe Illustrator 26.5.3, SVG Export Plug-In . SVG Version: 6.00 Build 0)  -->
<svg version="1.1" id="a" xmlns="http://www.w3.org/2000/svg" xmlns:xlink="http://www.w3.org/1999/xlink" x="0px" y="0px"
	 viewBox="0 0 70 35" style="enable-background:new 0 0 70 35;" xml:space="preserve">
<style type="text/css">
	.st0{fill:#F2F2F2;}
</style>
<g>
	<polygon class="st0" points="33.1,6.8 30.5,14.2 37.9,14.2 25.9,27.8 29.9,16.3 22.5,16.3 25.7,6.8 19.4,6.8 19.4,28.2 40.8,28.2 
		40.8,13.5 43.9,13.5 43.9,28.2 50.6,28.2 50.6,6.8 50.6,6.8 	"/>
	<path class="st0" d="M0,28.2h6.7v-9.3c1.2,0.2,2.6,0.7,4.3,2.2v-4.6c0,0-1.9-0.3-4.3,0.9v-3.8h9.6V6.8H0V28.2L0,28.2z"/>
	<path class="st0" d="M60.3,18.9c1.2,0.2,2.6,0.7,4.3,2.2v-4.6c0,0-1.9-0.3-4.3,0.9v-3.8h9.6V6.8H53.6v21.5H70v-6.7h-9.7V18.9
		L60.3,18.9z"/>
</g>
</svg>
