<?xml version="1.0" encoding="utf-8"?>
<!-- Generator: Adobe Illustrator 26.5.3, SVG Export Plug-In . SVG Version: 6.00 Build 0)  -->
<svg version="1.1" id="avatar" xmlns="http://www.w3.org/2000/svg" xmlns:xlink="http://www.w3.org/1999/xlink" x="0px" y="0px"
	 viewBox="0 0 60 60" style="enable-background:new 0 0 60 60;" xml:space="preserve">
<style type="text/css">
	.st0{fill:#F0F6E8;}
</style>
<path class="st0" d="M56.2,31.8c1.4-6.2,0.2-12.7-3.6-18C48.6,8,42.2,4.4,34.6,3.7c-6.6-4.6-17.5-3.6-22.5-0.8
	c-0.3,0.2-0.5,0.5-0.5,0.9c0,0.2,0.1,0.4,0.2,0.6C9.7,4.8,6.7,6,5.2,7.9C5.1,8.1,5,8.3,5,8.6s0.2,0.5,0.4,0.7c0,0,0.1,0.1,0.3,0.2
	c-1.6,0.7-3.3,1.8-4.6,3.6c-0.2,0.3-0.2,0.7-0.1,1c-0.4,0.5-0.7,1-0.9,1.5C0,15.8,0,16.1,0.2,16.4c0.1,0.1,0.4,0.7,0.9,1.4l0,0
	c-0.3,0.2-0.4,0.5-0.4,0.9c0,0.2,0.5,4.1,3.3,8.1c-0.5,3.3-0.7,6.4-0.4,9.5c-2.6,8.5,0.7,13.9,3.9,17c4.3,4.1,10.9,6.3,17.7,6.3
	c3.6,0,7.2-0.6,10.6-1.8c0,0,0.1,0,0.2-0.1c1.4-0.5,2.6-1,3.4-1.4c0,0,0.1,0,0.1,0c3.5-1.2,6.5-4.3,7.8-7.9c0.4,0.4,0.9,0.7,1.4,0.9
	c1.4,0.6,2.9,0.6,4.4-0.1c3.1-1.4,5.4-4.5,6.6-8.6C60.9,35.6,58.7,32.9,56.2,31.8L56.2,31.8z M38.1,32.5c0,0-0.9-4.3-4.9-5.5
	s-7.4,0.9-7.4,0.9s-1.4-3.1,1.3-5.6c0,0-0.2,0.7,0.3,1.3c1.6-0.5,5.5-0.6,7.9,0.8C37.3,25.8,39.1,28.8,38.1,32.5L38.1,32.5z
	 M35.6,40.1c-2.7-0.4-5.4-0.4-7.8,1.2c-0.1,0.1-0.3-0.1-0.2-0.2c0.3-0.4,0.7-0.8,1.1-1.1c-0.1,0-0.1,0-0.2,0.1
	c-0.7-0.5-1.3-1.2-1.5-2c0-0.1,0.1-0.1,0.1-0.1c0.8,0.9,1.5,1.3,2.3,1.6c0.6-0.3,1.2-0.5,1.8-0.6c-1.2-0.6-1.9-2.5-1.5-4.5
	c0.1-0.5,0.3-1,0.5-1.4c0.2,0.4,0.5,0.7,0.9,0.8c0.7,0.1,1.4-0.5,1.6-1.3c0.1-0.6-0.1-1.2-0.5-1.6c0.4-0.1,0.7-0.2,1.1-0.1
	c0.4,0.1,0.8,0.3,1.1,0.7c-0.4-1-1.1-1.8-2.2-2.3c-2.1-0.7-3.7,1.1-5.1,2.4c0.1-1.1,0.9-2.2,1.9-2.9c2.1-1.6,5.3-0.6,6.3,1.8
	c1.4,2.7,0.8,6.5-1.4,8.7C34.6,39.5,35.1,39.7,35.6,40.1L35.6,40.1z M30,45.7c-0.5,1.1-1.5,2-4,2.8c-2.2,0.7-6.1,0.6-6.1,0.2
	s6.4,0.3,9.8-3.4c-0.5-0.3-1.3-0.3-1.3-0.5c0,0,1.6-0.3,2,0.1c0.4,0.4-0.2,1.9-0.4,1.9C29.8,46.8,30.1,46.1,30,45.7L30,45.7z
	 M12.1,36.5c-1.4-0.3-2.2-2.2-1.8-4.3c0.1-0.5,0.2-0.9,0.4-1.3c0.1,0.4,0.4,0.7,0.8,0.7c0.7,0.1,1.3-0.4,1.5-1.2
	c0.1-0.6-0.1-1.1-0.4-1.5c0.3-0.1,0.7-0.2,1-0.1c0.5,0.1,0.8,0.4,1.1,0.7c-0.4-1-1-1.9-2.1-2.3C10.7,26.7,9,27.9,8,29.5
	c-0.1,0.1-0.2,0-0.2-0.1c1.3-3.7,5.6-4.6,7.6-0.9c0.7,1.3,0.9,3.1,0.5,4.7c1.2-1.4,4.4-1.7,4.4-1.4c0,0.3-2.9,1-3.8,2.2
	c-0.9,1.2-1.3,4.4-1.5,4.4c-0.1,0-0.2-1.7,0.1-3.3c-1,1.9-2.8,3.1-5.1,2.5c-1.1-0.4-1.9-1.3-2.2-2.3c0-0.1,0.1-0.1,0.1-0.1
	c1.1,1.5,3,2.1,4.5,1.1C12.3,36.5,12.2,36.5,12.1,36.5L12.1,36.5z M7.9,26.6c0.4-2.8,2.6-4.6,4.3-4.8c2.4-0.2,4.1,0.7,4.9,1.6
	c0.3-0.3,0.5-1.1,0.5-1.1c1.4,2.4-0.4,5-0.4,5s-1.7-2.4-4.6-2.8C9.8,24.1,7.9,26.7,7.9,26.6L7.9,26.6z M21.6,42.6
	c0,0.6-1.8,1.4-3.5,1.4c-2.6,0-3.5-2.6-3.5-2.6C16.7,42.6,21.6,42,21.6,42.6L21.6,42.6z M58.6,40.2c-0.9,3.3-2.8,6.4-6,7.9
	c-2.4,1.1-4.9,0-5.7-2.3c-0.7,4.1-3.9,8-7.7,9.3c0.3-0.6,1-1,1.4-1.5c2.3-2.2,4.3-4.8,5.3-7.8c0.3-1,0.6-2,0.7-3.1
	c0-0.1,0-0.1,0-0.2c0-0.2,0-0.3,0-0.5c0-0.1,0.1-0.1,0.1,0c0.1,0.5,0.2,0.9,0.2,1.4c0.3,1.1,0.7,2.1,1.4,2.8
	c2.3,2.2,5.5-0.2,6.9-2.4c2.3-3.2,3.8-9.6-1.7-10.3c-2.9-0.3-4.8,2-6.5,4.1c-0.3,0.6-0.6,1.4-0.9,2.2c-0.7-0.2-1.9-1.6-2.1-2.3
	c-0.2-0.6,0.1-2.7,1.3-5c0,0-1.7-2.5-1.8-3.7c-0.1-1.1-0.4-5.3-0.4-5.3s-7.9-7.5-20.6-7.5c-9.4,0-13.4,3.4-15.1,5.9
	c-0.7,1.9-1.1,4.1-1.4,6.1c-0.4,2.7-0.4,5.5-0.3,8.2C4.7,39.9,4.7,44,6.1,47.3c3.2,7,11.6,9.9,18.9,9.9c3.8,0.1,7.6-0.6,11.5-1.1
	c0.1,0,0.1,0.1,0.1,0.2c-15.3,6.3-37.8-1.4-31.9-20c-0.3-3.3-0.1-6.6,0.5-9.8c-2.9-4-3.4-8-3.4-8s1.7,0.6,2.7,0.2
	C2.5,18.7,1,15.9,1,15.9c0.4-1,1.4-1.9,2.5-2.6c-1,0.1-1.6,0.3-1.6,0.3c1.6-2.2,4.1-3.3,5.9-3.9C6.9,9.1,6,8.5,6,8.5
	c1.9-2.3,6.5-3.4,8-3.4c-0.5-1-1.3-1.3-1.3-1.3c4.7-2.6,15.4-3.6,21.6,0.9c16,1.3,24.2,15.6,20.8,27.8
	C57.8,33.2,59.8,35.8,58.6,40.2L58.6,40.2z M51.5,37.6c0.4,0.5,1.2,1.8-0.2,3.6c0.2,0.2,0.4,0.4,0.5,0.7c0.8,1.7-1.8,2.9-2,2.9
	s-0.2-0.1-0.1-0.1c0,0,2.3-1.5,1.1-2.6c-1.1-1.1-2.3-0.2-2.5-0.7c-0.1-0.5,0.6-1.8,0.6-1.8c0.8-1.5,1.9-3,3.6-3.5
	c2.4-0.6,3.2,1.5,2.3,3.4c0,0,0,0,0,0C55.3,36.3,53.2,35.9,51.5,37.6z"/>
</svg>
