<?xml version="1.0" encoding="utf-8"?>
<!-- Generator: Adobe Illustrator 26.5.3, SVG Export Plug-In . SVG Version: 6.00 Build 0)  -->
<svg version="1.1" id="a" xmlns="http://www.w3.org/2000/svg" xmlns:xlink="http://www.w3.org/1999/xlink" x="0px" y="0px"
	 viewBox="0 0 18 18" style="enable-background:new 0 0 18 18;" xml:space="preserve">
<style type="text/css">
	.st0{fill:#AFAFAF;}
	.st1{fill:none;stroke:#AFAFAF;stroke-linecap:round;stroke-linejoin:round;}
</style>
<g>
	<path class="st0" d="M10.3,12c0-0.7-0.6-1.2-1.3-1.2S7.7,11.3,7.7,12c0,0.4,0.3,0.8,0.7,1l-0.5,2.4H9h1.1L9.6,13
		C10,12.8,10.3,12.4,10.3,12z"/>
	<path class="st1" d="M4.5,17.4h9c0.9,0,1.6-0.7,1.6-1.6V9.5c0-0.9-0.7-1.6-1.6-1.6h-9c-0.9,0-1.6,0.7-1.6,1.6v6.3
		C2.9,16.7,3.6,17.4,4.5,17.4z"/>
	<path class="st1" d="M13.3,7.4V4.7c0-2.3-1.9-4.1-4.3-4.1h0c-2.4,0-4.3,1.8-4.3,4.1v2.7"/>
</g>
</svg>
